<?xml version="1.0" encoding="utf-8"?>
<!-- Generator: Adobe Illustrator 24.1.0, SVG Export Plug-In . SVG Version: 6.00 Build 0)  -->
<svg version="1.1" id="レイヤー_1" xmlns="http://www.w3.org/2000/svg" xmlns:xlink="http://www.w3.org/1999/xlink" x="0px"
	 y="0px" viewBox="0 0 150 40" style="enable-background:new 0 0 150 40;" xml:space="preserve">
<path d="M17.6,0.5C8.1,0.5,0.5,8.2,0.5,17.6c0,6.4,3.5,12,8.7,14.9v-2.2C5,27.7,2.3,23,2.3,17.6c0-8.4,6.9-15.3,15.3-15.3
	c8.4,0,15.3,6.9,15.3,15.3c0,5.3-2.7,10-6.9,12.8v2.2c5.2-2.9,8.7-8.5,8.7-14.9C34.7,8.2,27,0.5,17.6,0.5z M12,37.5h4.2v2H19v-2h4.1
	v-2.8H12V37.5z M18.1,32.1c-0.6-0.2-1.7-0.8-1.9-1.2c-0.4-0.9-2-2.9-2.7-3.4s-1-0.8-2.1-0.5c-0.6,0.2-1.3,0.4-2,0.6
	c0.9,0.7,1.9,1.4,3,1.8v2.7H18.1z M30.6,17.7c-0.1-7.2-5.9-13-13-13c-7.1,0-12.9,5.8-12.9,12.9c0,0.7,0.1,1.4,0.2,2
	c1.2-0.2,3.4-0.6,4.3-1.1c0.6-0.3,0.4-0.7,0.3-1.4c0-0.3,2.1,0.9,3,1.1c0.8,0.1,1.2-1.1,1.2-1.1s-2.9-0.3-4.4-2.2
	c-0.8-0.9-1-2.9-0.7-3.5c0.2-0.6,1.3-1.2,2.3-1.4c0.9-0.2,1.9,0.4,1.9,0.4s0.4-0.3,1.3-0.6c0.9-0.3,1.7-0.5,2.5-0.2
	c1.3,0.4,3,0.9,3.8,1.2c0.8,0.3,1.9,0.7,2.2,0.8c0.2,0.1,0.4,0.3,0.3,0.5c0,0.2-0.3,0.2-0.2,0.4c0,0.2,0.2,0.4,0.1,0.7
	c-0.2,1.2-0.6,1.4-0.7,1.5c-0.1,0.1-0.2,0.2-0.4,0.3c-0.1,0.1-0.2,0.2-0.2,0.3c0,0.2,0.1,0.5,0.2,0.3c0.2-0.2,0.4-0.4,0.5-0.4
	c0.2-0.1,0.1,1.6-0.1,1.7c-0.4,0.2-2,0.9-2.7,1.3c-0.3,0.2-0.4,1-0.5,1.3c-0.3,0.8-1.5,3-1.7,4c-0.1,0.5-0.2,1-0.1,1.4
	c0.2,0.5,0.4,1.4,0.8,2.4c0.6,1.5,1.1,2.2,1.4,2.4c0.4,0.4,0.9,0.5,1.9,0.5c0.5,0,0.9,1.4,0.8,1.9h1.5v-2.9
	C27.7,27.1,30.6,22.7,30.6,17.7z M12.2,11.8c-0.7,0-1.3,0.5-1.4,1c-0.1,0.6,0.4,1.8,2,2.2c0.5,0.2,0.5,0,0.4-0.5
	c-0.1-0.4-0.3-1.6-0.4-2.2C12.7,11.9,12.5,11.8,12.2,11.8z M47.5,26.5V13.9h-3.2v15h9.3l-0.1-2.4H47.5z M60.2,17.8
	c-3.6,0-5.6,2.7-5.6,5.8c0,3.4,2.1,5.5,5.9,5.5c1.5,0,2.9-0.2,3.9-0.6L64,26.6c-0.9,0.2-1.8,0.4-3,0.4c-1.7,0-3.2-0.7-3.3-2.6H65
	c0.1-0.4,0.1-0.8,0.1-1.2C65.1,19.7,63.2,17.8,60.2,17.8z M57.7,22.3c0.1-1.1,0.7-2.5,2.3-2.5s2.1,1.4,2.1,2.5H57.7z M72.1,17.8
	c-3.3,0-5.8,2.1-5.8,5.7c0,3.5,2.3,5.6,5.6,5.6c2.7,0,5.7-1.6,5.7-5.7C77.6,20.1,75.5,17.8,72.1,17.8z M72,26.9
	c-1.6,0-2.4-1.6-2.4-3.5c0-1.6,0.6-3.5,2.4-3.5c1.7,0,2.3,1.9,2.4,3.4C74.4,25.3,73.5,26.9,72,26.9z M89.8,20.2
	c-2.1-0.8-2.9-1.3-2.9-2.4c0-0.9,0.8-1.7,2.5-1.7c1.4,0,2.4,0.3,3,0.6l0.6-2.3c-0.8-0.4-2-0.7-3.6-0.7c-3.6,0-5.8,1.9-5.8,4.4
	c0,1.9,1.6,3.3,4.1,4.3c1.9,0.7,2.7,1.3,2.7,2.4c0,1.1-0.9,1.9-2.7,1.9c-1.3,0-2.7-0.3-3.6-0.8l-0.6,2.4c0.8,0.4,2.4,0.8,4.1,0.8
	c3.9,0,6.1-1.9,6.1-4.5C93.7,22.7,92.5,21.3,89.8,20.2z M100.8,17.8c-3.3,0-5.8,2.1-5.8,5.7c0,3.5,2.3,5.6,5.6,5.6
	c2.7,0,5.7-1.6,5.7-5.7C106.3,20.1,104.2,17.8,100.8,17.8z M100.7,26.9c-1.6,0-2.4-1.6-2.4-3.5c0-1.6,0.6-3.5,2.4-3.5
	c1.7,0,2.3,1.9,2.4,3.4C103.1,25.3,102.2,26.9,100.7,26.9z M114.9,17.8c-1.6,0-2.8,0.6-3.6,1.7l-0.2-1.5h-2.8c0.1,1,0.1,2.2,0.1,3.6
	v11.7h3.2v-5.4c0.5,0.8,1.6,1.3,2.9,1.3c2.5,0,5-1.8,5-5.8C119.5,20,117.6,17.8,114.9,17.8z M113.8,26.8c-1.1,0-2.2-0.7-2.2-2.3
	l0.1-2c0-1.3,1-2.4,2.2-2.4c1.6,0,2.4,1.4,2.4,3.3C116.3,25.4,115.4,26.8,113.8,26.8z M128,17.8c-1.1,0-2.4,0.4-3.3,1.5v-6.1h-3.2
	v15.6h3.2v-6.6c0-1.6,1.3-2.1,2.1-2.1c1.4,0,1.9,1.1,1.9,2.5v6.3h3.2v-6.5C131.9,19.2,130.2,17.8,128,17.8z M134.5,28.9h3.2V18.1
	h-3.2V28.9z M149.4,26.3v-4.1c0-2.4-1-4.5-4.8-4.5c-1.9,0-3.4,0.5-4.2,0.9l0.6,1.9c0.8-0.4,1.9-0.7,3-0.7c1.8,0,2.2,0.8,2.2,1.9
	c-3.9,0-6.7,1.3-6.7,4.1c0,1.8,1.4,3.3,3.7,3.3c1.3,0,2.5-0.4,3.2-1.3h0.1l0.2,1.1h2.9C149.4,28.2,149.4,27.3,149.4,26.3z
	 M146.1,25.2c0,1.4-1.2,1.9-2,1.9c-0.8,0-1.5-0.5-1.5-1.5c0-1.6,1.7-2,3.5-2V25.2z M136,13.2c-1,0-1.7,0.7-1.7,1.7s0.7,1.7,1.7,1.7
	s1.8-0.6,1.8-1.7C137.8,13.9,137,13.2,136,13.2z"/>
</svg>
