<?xml version="1.0" encoding="utf-8"?>
<!-- Generator: Adobe Illustrator 24.1.0, SVG Export Plug-In . SVG Version: 6.00 Build 0)  -->
<svg version="1.1" id="レイヤー_1" xmlns="http://www.w3.org/2000/svg" xmlns:xlink="http://www.w3.org/1999/xlink" x="0px"
	 y="0px" viewBox="0 0 22 22" style="enable-background:new 0 0 22 22;" xml:space="preserve">
<style type="text/css">
	.st0{fill:#FFFFFF;}
</style>
<path class="st0" d="M12.5,1.3h-3C5,1.3,1.4,4.9,1.4,9.4s3.6,8.1,8.1,8.1H11v3.7l4.2-4.2c3.2-1.1,5.5-4.1,5.5-7.7
	C20.6,4.9,17,1.3,12.5,1.3z M12.5,16.1h-3c-3.7,0-6.7-3-6.7-6.7s3-6.7,6.7-6.7h3c3.7,0,6.7,3,6.7,6.7S16.2,16.1,12.5,16.1z M6.6,7.9
	c-0.8,0-1.5,0.7-1.5,1.5s0.7,1.5,1.5,1.5S8,10.2,8,9.4S7.4,7.9,6.6,7.9z M11,7.9c-0.8,0-1.5,0.7-1.5,1.5s0.7,1.5,1.5,1.5
	s1.5-0.7,1.5-1.5S11.8,7.9,11,7.9z M15.4,7.9c-0.8,0-1.5,0.7-1.5,1.5s0.7,1.5,1.5,1.5c0.8,0,1.5-0.7,1.5-1.5S16.3,7.9,15.4,7.9z"/>
</svg>
